<svg width="185" height="56" viewBox="0 0 185 56" fill="none" xmlns="http://www.w3.org/2000/svg">
<path d="M117.072 49.8926V54.5718H114.509C109.306 54.5718 107.29 53.1674 107.058 48.333C104.186 52.7013 99.0607 55.3546 92.6983 55.3546C84.4689 55.3546 80.1996 51.3747 80.1223 45.7573C80.045 33.4291 103.098 32.8853 107.058 32.4969C107.058 26.0967 104.264 22.9773 97.6634 22.9773C87.882 22.9773 87.882 29.3715 87.882 29.3715H82.138C82.138 29.3715 82.0607 18.6806 97.7407 18.6806C107.909 18.6806 112.41 23.5988 112.41 32.4132V47.6278C112.41 49.3429 112.796 49.8926 114.58 49.8926H117.066H117.072ZM107.058 40.3791V36.6322C101.701 37.0206 85.557 37.9588 85.7889 45.7573C85.9435 49.4265 89.2853 51.0639 93.2394 50.9862C99.2926 50.9862 107.058 46.9286 107.058 40.3791Z" fill="#F3F3F3"/>
<path d="M153.712 38.897H124.367C124.754 45.841 128.637 50.9862 136.789 50.9862C145.869 50.9862 147.504 43.6538 147.504 43.6538H153.171C153.171 43.6538 151.309 55.3546 136.712 55.3546C125.688 55.3546 118.861 48.2553 118.861 37.0983C118.861 25.9413 125.224 18.6866 136.712 18.6866C150.061 18.6866 154.645 29.8436 153.712 38.891V38.897ZM124.373 34.451H148.36C148.592 28.756 144.555 23.0609 136.795 23.0609C129.035 23.0609 124.843 28.8336 124.373 34.451Z" fill="#F3F3F3"/>
<path d="M163.802 11.7486C161.632 11.7486 159.842 9.95582 159.842 7.76865C159.842 5.4261 161.626 3.63334 163.802 3.63334C166.133 3.63334 167.917 5.4261 167.917 7.76865C167.917 9.94985 166.133 11.7486 163.802 11.7486ZM161.246 54.5777V19.4694H166.603V54.5777H161.246Z" fill="#F3F3F3"/>
<path d="M181.742 54.5777C176.307 54.5777 174.214 53.018 174.214 47.6338V4.41618H179.571V47.6338C179.571 49.3488 179.958 49.8986 181.742 49.8986H185V54.5777H181.742Z" fill="#F3F3F3"/>
<path d="M74.7884 15.3162C71.3337 7.18898 64.0259 1.95411 55.2375 1.31469C54.6488 1.27286 54.0542 1.24896 53.4596 1.24896C47.341 1.24896 41.0203 3.46003 34.6639 7.82243C31.6135 3.87237 27.8317 1.36847 23.4138 0.388429C22.2602 0.131466 21.0769 0 19.8937 0C10.7842 0 3.40502 7.42204 0.408173 14.3182C-0.448071 16.2843 0.0573504 17.8858 1.78768 18.7045C2.19201 18.8957 2.6023 18.9914 3.01853 18.9914C4.16613 18.9914 5.2067 18.2444 5.72996 17.0492C8.01922 11.7844 13.0615 5.63525 19.7391 5.63525C20.1018 5.63525 20.4764 5.65318 20.8391 5.68903C25.2392 6.13125 28.3253 8.88613 30.1924 11.2466C23.9668 16.6189 19.0553 23.5629 15.9692 31.3555C14.0724 36.1481 13.3826 43.8211 16.3319 49.3488C18.1455 52.7431 21.0353 54.8765 24.9419 55.7012C24.9419 55.7012 24.9538 55.7012 24.9598 55.7012C25.923 55.8984 26.8744 56 27.7901 56C37.6369 56 42.5841 44.6458 42.8279 36.9668C43.1014 28.493 41.3057 20.0551 37.6488 12.5673C42.5603 9.13713 47.4897 7.24277 52.2941 6.94397C52.7104 6.92007 53.1266 6.90214 53.5428 6.90214C60.4225 6.90214 66.2794 10.5295 69.2168 16.607C71.9223 22.2064 72.4694 28.8336 70.7569 35.2697C69.0266 41.7595 65.2151 47.1856 60.0182 50.5381C58.4662 51.542 58.3533 53.3288 59.0371 54.5C59.5484 55.3725 60.4582 55.9163 61.4215 55.9163C61.9447 55.9163 62.4561 55.761 62.9377 55.4502C75.6565 47.2334 80.8594 29.5985 74.7884 15.2983V15.3162ZM21.957 31.6782C24.6327 25.9652 28.7831 20.2284 33.1238 16.2245C35.6925 22.0092 37.2207 28.9352 37.2266 34.8633C37.2266 38.8014 36.3645 42.7096 34.8541 45.584C33.6292 47.9087 31.3816 50.6875 27.6117 50.6875C27.0944 50.6875 26.5593 50.6337 26.0301 50.5381C23.8835 50.048 22.284 48.7513 21.285 46.6836C19.0612 42.0941 20.3396 35.1501 21.9629 31.6841L21.957 31.6782Z" fill="#F3F3F3"/>
</svg>
